<?xml version="1.0" encoding="iso-8859-1"?>
<!-- Generator: Adobe Illustrator 19.0.0, SVG Export Plug-In . SVG Version: 6.00 Build 0)  -->
<svg version="1.1" id="Layer_1" xmlns="http://www.w3.org/2000/svg" xmlns:xlink="http://www.w3.org/1999/xlink" x="0px" y="0px"
	 viewBox="0 0 503.467 503.467" style="enable-background:new 0 0 503.467 503.467;" xml:space="preserve">
<g transform="translate(1 1)">
	<path style="fill:#FFD0A1;" d="M91.587,322.2l-2.56,1.707l-24.747,23.04c-5.12,7.68-4.267,20.48,5.973,29.867
		c10.24,10.24,22.187,10.24,29.867,5.973l-5.973,5.973c-10.24,10.24-10.24,26.453,0,35.84c10.24,10.24,26.453,10.24,36.693,0
		l5.973-5.973c-9.387,10.24-9.387,25.6,0,35.84c10.24,10.24,26.453,10.24,36.693,0l23.893-23.893l-35.84-35.84l-35.84-35.84
		l-5.973-5.973l5.973,5.973l35.84,35.84l35.84,35.84l37.547,37.547l17.067,17.067c10.24,10.24,26.453,10.24,35.84,0
		c10.24-10.24,10.24-26.453,0-35.84l11.947,11.947c10.24,10.24,26.453,10.24,35.84,0c10.24-10.24,10.24-26.453,0-36.693
		l11.947,11.947c10.24,10.24,26.453,10.24,36.693,0c10.24-10.24,10.24-26.453,0-36.693l-23.893-23.893
		c10.24,10.24,26.453,10.24,35.84,0c10.24-10.24,10.24-26.453,0-36.693l-17.92-17.92l35.84-35.84
		c23.893-23.893,17.92-83.627,41.813-108.373l21.333-21.333L365.506,44.014L317.72,91.801c-23.893,23.893-48.64,0-72.533,23.893
		l-35.84,35.84l-0.853-0.853L135.96,78.147L29.293,184.814l25.6,25.6C77.08,235.16,67.693,282.094,91.587,322.2L91.587,322.2z
		 M93.293,325.613L93.293,325.613L93.293,325.613L93.293,325.613z M234.093,468.974l-24.747,23.04
		c-7.68,4.267-20.48,4.267-29.867-5.973c-5.973-5.973-8.533-13.653-8.533-19.627c0-4.267,0.853-7.68,2.56-10.24L197.4,432.28
		L234.093,468.974z"/>
	<path style="fill:#80D6FA;" d="M148.76,71.32l-12.8,12.8L29.293,190.787l-25.6,25.6V79.853l76.8-76.8L148.76,71.32z M387.693,3.053
		h68.267l42.667,42.667v136.533l-21.333-21.333L365.507,49.133L353.56,37.187L387.693,3.053z"/>
	<path style="fill:#E4F2DE;" d="M430.36,28.653c5.12,0,8.533,4.267,8.533,8.533s-3.413,8.533-8.533,8.533s-8.533-4.267-8.533-8.533
		S425.24,28.653,430.36,28.653z M71.96,62.787c4.267,0,8.533,4.267,8.533,8.533s-4.267,8.533-8.533,8.533s-8.533-4.267-8.533-8.533
		S67.693,62.787,71.96,62.787z"/>
</g>
<path style="fill:#51565F;" d="M199.253,503.253c-7.68,0-15.36-2.56-22.187-9.387c-7.68-7.68-10.24-16.213-10.24-23.893
	c-10.24,4.267-23.893,1.707-32.427-6.827c-5.973-5.973-8.533-12.8-8.533-21.333c0-0.853,0-1.707,0-3.413
	c-11.093,5.12-24.747,3.413-33.28-5.973c-10.24-10.24-11.093-26.453-3.413-38.4c-6.827,0-14.507-3.413-20.48-10.24
	c-11.947-11.947-11.947-27.307-6.827-35.84c1.707-1.707,4.267-2.56,5.973-0.853c1.707,1.707,2.56,4.267,0.853,5.973
	c-3.413,5.12-3.413,16.213,5.12,24.747s18.773,8.533,24.747,5.12c1.707-0.853,4.267-0.853,5.12,0.853
	c1.707,1.707,0.853,4.267,0,5.973l-5.973,5.973c-4.267,4.267-5.973,9.387-5.973,15.36c0,5.973,2.56,11.093,5.973,15.36
	c8.533,8.533,22.187,8.533,29.867,0l5.973-5.973l0,0c1.707-1.707,4.267-1.707,5.973,0c1.707,1.707,1.707,4.267,0,5.973l0,0
	c-4.267,4.267-5.973,9.387-5.973,15.36c0,5.973,2.56,11.093,5.973,15.36c7.68,7.68,22.187,7.68,29.867,0
	c1.707-1.707,4.267-1.707,5.973,0c1.707,1.707,1.707,3.413,0.853,5.973c-3.413,5.973-3.413,16.213,5.12,24.747
	c8.533,8.533,18.773,8.533,25.6,5.12c1.707-0.853,4.267,0,5.973,1.707c0.853,1.707,0,4.267-1.707,5.973
	C208.64,502.4,204.373,503.253,199.253,503.253z M270.08,502.4c-7.68,0-15.36-2.56-21.333-8.533L103.68,348.8
	c-24.747-24.747-29.867-54.613-34.987-81.92c-3.413-19.627-5.973-36.693-16.213-46.08c-1.707-1.707-1.707-4.267,0-5.973
	c1.707-1.707,4.267-1.707,5.973,0c11.947,11.947,15.36,30.72,18.773,51.2c4.267,25.6,9.387,53.76,32.427,76.8L254.72,487.893
	c8.533,8.533,22.187,8.533,29.867,0c8.533-8.533,8.533-22.187,0-29.867l0,0L206.08,379.52c-0.853-0.853-0.853-1.707-0.853-3.413
	c0-1.706,0-2.56,0.853-3.413c1.707-1.707,4.267-1.707,5.973,0l90.453,90.453c7.68,7.68,22.187,7.68,29.867,0
	c4.267-4.267,5.973-9.387,5.973-15.36s-2.56-11.093-5.973-15.36l0,0L235.947,336c-0.853-0.853-0.853-1.707-0.853-3.413
	s0-2.56,0.853-3.413c1.707-1.707,4.267-1.707,5.973,0l96.427,96.427l0,0l11.947,11.947c8.533,8.533,22.187,8.533,29.867,0
	c4.267-4.267,5.973-9.387,5.973-15.36c0-5.973-2.56-11.093-5.973-15.36l-23.893-23.893l0,0l-90.453-90.453
	c-0.853-0.853-0.853-1.707-0.853-3.413s0-2.56,0.853-3.413c1.707-1.707,4.267-1.707,5.973,0l90.453,90.453
	c7.68,7.68,22.187,7.68,29.867,0c4.267-4.267,5.973-9.387,5.973-15.36c0-5.973-2.56-11.093-5.973-15.36l-90.453-90.453
	c-1.707-1.707-1.707-4.267,0-5.973c1.707-1.707,4.267-1.707,5.973,0l90.453,90.453c11.947,11.947,11.947,30.72,0,42.667
	c-5.973,5.973-13.653,8.533-21.333,8.533l9.387,9.387c5.973,5.973,8.533,12.8,8.533,21.333c0,7.68-3.413,15.36-8.533,21.333
	c-11.093,11.093-28.16,11.947-39.253,2.56c0,7.68-2.56,15.36-8.533,21.333c-5.973,5.973-12.8,8.533-21.333,8.533l0,0
	c-6.827,0-12.8-2.56-18.773-5.973c0,7.68-2.56,15.36-8.533,21.333C285.44,498.987,277.76,502.4,270.08,502.4z M403.2,307.84
	c-0.853,0-2.56,0-3.413-0.853c-1.707-1.707-1.707-4.267,0-5.973l11.947-11.947c11.093-11.093,15.36-31.573,19.627-52.053
	c4.267-21.333,9.387-43.52,22.187-56.32c1.707-1.707,4.267-1.707,5.973,0s1.707,4.267,0,5.973
	c-11.093,11.093-15.36,31.573-19.627,52.053c-4.267,21.333-9.387,43.52-22.187,56.32l-11.947,11.947
	C404.907,306.987,404.053,307.84,403.2,307.84z M173.653,257.494c-10.24,0-19.627-3.413-27.307-11.093l-5.973-5.973
	c-2.56-2.56-3.413-5.973-3.413-9.387c0-3.413,1.707-6.827,3.413-9.387l102.4-102.4C256.427,105.6,270.08,105.6,282.027,105.6
	c11.947,0,22.187,0,33.28-11.093L339.2,70.614c1.707-1.707,4.267-1.707,5.973,0c1.707,1.707,1.707,4.267,0,5.973L321.28,100.48
	c-13.653,13.653-27.307,13.653-39.253,13.653c-11.947,0-22.187,0-33.28,11.093l-102.4,102.4c-0.853,0.853-0.853,1.707-0.853,3.413
	c0,0.853,0.853,2.56,0.853,3.413l5.973,5.973c11.093,11.093,30.72,11.093,42.667,0l48.64-48.64c1.707-1.707,4.267-1.707,5.973,0
	c15.36,15.36,35.84,23.893,57.173,23.893l0,0c21.333,0,41.813-8.533,57.173-23.893c1.707-1.707,4.267-1.707,5.973,0
	c1.707,1.707,1.707,4.267,0,5.973c-17.067,17.067-39.253,26.453-63.147,26.453l0,0c-22.187,0-43.52-8.533-60.587-23.04L200.96,246.4
	C193.28,253.227,183.893,257.494,173.653,257.494z M4.693,221.653c-0.853,0-2.56,0-3.413-0.853c-1.707-1.707-1.707-4.267,0-5.973
	L142.933,73.173L95.147,25.387c-1.707-1.707-1.707-4.267,0-5.973c1.707-1.707,4.267-1.707,5.973,0l51.2,51.2
	c1.707,1.707,1.707,4.267,0,5.973L7.254,221.653C7.253,221.653,5.547,221.653,4.693,221.653z M499.627,187.52
	c-0.853,0-2.56,0-3.413-0.853L351.147,41.6c-1.707-1.707-1.707-4.267,0-5.973L385.28,1.493c1.707-1.707,4.267-1.707,5.973,0
	c1.707,1.707,1.707,4.267,0,5.973l-30.72,30.72L502.187,179.84c1.707,1.707,1.707,4.267,0,5.973
	C502.187,187.52,500.48,187.52,499.627,187.52z M185.6,138.88c-0.853,0-2.56,0-3.413-0.853l-23.893-23.893
	c-0.853-0.853-0.853-1.707-0.853-3.413s0-2.56,0.853-3.413c1.707-1.707,4.267-1.707,5.973,0L188.16,131.2
	c0.853,0.853,0.853,1.707,0.853,3.413s0,2.56-0.853,3.413C187.307,138.88,187.307,138.88,185.6,138.88z M72.96,85.12
	c-6.827,0-12.8-5.973-12.8-12.8s5.973-12.8,12.8-12.8s12.8,5.973,12.8,12.8S79.787,85.12,72.96,85.12z M72.96,68.053
	c-2.56,0-4.267,1.707-4.267,4.267s1.707,4.267,4.267,4.267s4.267-1.707,4.267-4.267S75.52,68.053,72.96,68.053z M431.36,50.987
	c-6.827,0-12.8-5.973-12.8-12.8s5.973-12.8,12.8-12.8s12.8,5.973,12.8,12.8S438.187,50.987,431.36,50.987z M431.36,33.92
	c-2.56,0-4.267,1.707-4.267,4.267s1.707,4.267,4.267,4.267s4.267-1.707,4.267-4.267S433.92,33.92,431.36,33.92z"/>
<g>
</g>
<g>
</g>
<g>
</g>
<g>
</g>
<g>
</g>
<g>
</g>
<g>
</g>
<g>
</g>
<g>
</g>
<g>
</g>
<g>
</g>
<g>
</g>
<g>
</g>
<g>
</g>
<g>
</g>
</svg>
